<?xml version="1.0" encoding="utf-8"?>
<!-- Generator: Adobe Illustrator 16.0.4, SVG Export Plug-In . SVG Version: 6.00 Build 0)  -->
<!DOCTYPE svg PUBLIC "-//W3C//DTD SVG 1.1//EN" "http://www.w3.org/Graphics/SVG/1.1/DTD/svg11.dtd">
<svg version="1.1" id="Layer_1" xmlns:sketch="http://www.bohemiancoding.com/sketch/ns"
	 xmlns="http://www.w3.org/2000/svg" xmlns:xlink="http://www.w3.org/1999/xlink" x="0px" y="0px" width="616.114px"
	 height="908.5px" viewBox="0 -4.5 616.114 908.5" enable-background="new 0 -4.5 616.114 908.5" xml:space="preserve">
<title>Big Bag</title>
<desc>Created with Sketch.</desc>
<g id="_x2D_-BIG-BAG" transform="translate(-413.000000, -20.000000)" sketch:type="MSArtboardGroup">
	<g id="Big-Bag" transform="translate(413.000000, 20.000000)" sketch:type="MSLayerGroup">
		<path id="Fill-8_1_" sketch:type="MSShapeGroup" fill="#FFFFFF" stroke="#000000" stroke-miterlimit="10" d="M462.272,420.168
			v-36.853c0,0,12.227-383.315-134.562-383.315h-0.002c-2.715,0-5.371,0.134-7.977,0.392C317.126,0.135,314.466,0,311.752,0
			C164.965,0,179.996,383.315,179.996,383.315v36.853h49.328v-36.853c0,0-17.252-362.783,90.41-379.8
			c107.784,17.017,93.213,379.8,93.213,379.8v36.853H462.272z"/>
		<path id="Fill-1" sketch:type="MSShapeGroup" fill="#FFFFFF" stroke="#000000" stroke-miterlimit="10" d="M13.749,418.179v433.256
			l40.046,50.279h520.604l40.048-50.275v-433.26H13.749"/>
		<path id="Fill-2" sketch:type="MSShapeGroup" fill="#DA3082" d="M79.847,830.375v-11.803h-1.894v4.953H75.88v-4.953h-1.895v11.803
			h1.895v-4.953h2.073v4.953H79.847"/>
		<path id="Fill-3" sketch:type="MSShapeGroup" fill="#DA3082" d="M87.781,818.572h-1.897v9.367c0,0.297-0.242,0.539-0.539,0.539
			h-0.99c-0.298,0-0.541-0.242-0.541-0.539v-9.367h-1.896v9.863c0,1.068,0.87,1.938,1.938,1.938h1.983
			c1.07,0,1.941-0.869,1.941-1.938L87.781,818.572"/>
		<path id="Fill-4" sketch:type="MSShapeGroup" fill="#DA3082" d="M103.649,820.467v-1.896h-5.862v11.803h5.862v-1.896h-3.967
			v-3.061h1.984v-1.895h-1.984v-3.059h3.967"/>
		<path id="Fill-5" sketch:type="MSShapeGroup" fill="#DA3082" d="M95.716,823.525h-2.887v1.896h0.989v2.52
			c0,0.297-0.242,0.537-0.538,0.537h-0.99c-0.298,0-0.541-0.242-0.541-0.539v-6.938c0-0.301,0.238-0.535,0.541-0.535h0.99
			c0.296,0,0.538,0.238,0.538,0.535v0.453h1.898v-0.943c0-1.07-0.871-1.939-1.942-1.939h-1.98c-1.07,0-1.942,0.869-1.942,1.939
			v7.924c0,1.068,0.872,1.938,1.942,1.938h1.98c1.071,0,1.942-0.867,1.942-1.938V823.525"/>
		<path id="Fill-6" sketch:type="MSShapeGroup" fill="#DA3082" d="M0.117,450.857h13.577v32.059H0.117V450.857z"/>
		<path id="Fill-7" sketch:type="MSShapeGroup" fill="#FFFFFF" d="M8.439,453.312v4.604H5.367v-4.604H2.294v12.285h3.073v-4.613
			h3.072v4.613h3.074v-12.285H8.439"/>
	</g>
</g>
</svg>
