<?xml version="1.0" encoding="utf-8"?>
<!-- Generator: Adobe Illustrator 16.0.4, SVG Export Plug-In . SVG Version: 6.00 Build 0)  -->
<!DOCTYPE svg PUBLIC "-//W3C//DTD SVG 1.1//EN" "http://www.w3.org/Graphics/SVG/1.1/DTD/svg11.dtd">
<svg version="1.1" id="Layer_1" xmlns:sketch="http://www.bohemiancoding.com/sketch/ns"
	 xmlns="http://www.w3.org/2000/svg" xmlns:xlink="http://www.w3.org/1999/xlink" x="0px" y="0px" width="615px" height="902px"
	 viewBox="0 0 615 902" enable-background="new 0 0 615 902" xml:space="preserve">
<title>Big Bag</title>
<desc>Created with Sketch.</desc>
<g id="Designer-Flow" sketch:type="MSPage">
	<g id="_x2D_-BIG-BAG" transform="translate(-413.000000, -20.000000)" sketch:type="MSArtboardGroup">
		<g id="Big-Bag" transform="translate(413.000000, 20.000000)" sketch:type="MSLayerGroup">
			<path id="Fill-1" sketch:type="MSShapeGroup" fill="#FF0000" d="M13.865,419.406v433.257l40.046,50.278h520.605l40.047-50.275
				v-433.26H13.865"/>
			<path id="Fill-2" sketch:type="MSShapeGroup" fill="#FFFFFF" d="M79.963,831.602v-11.803h-1.894v4.953h-2.073v-4.953h-1.895
				v11.803h1.895v-4.954h2.073v4.954H79.963"/>
			<path id="Fill-3" sketch:type="MSShapeGroup" fill="#FFFFFF" d="M87.897,819.799H86v9.368c0,0.296-0.242,0.539-0.539,0.539h-0.99
				c-0.298,0-0.541-0.243-0.541-0.539v-9.368h-1.896v9.863c0,1.069,0.87,1.939,1.938,1.939h1.983c1.07,0,1.941-0.87,1.941-1.939
				V819.799"/>
			<path id="Fill-4" sketch:type="MSShapeGroup" fill="#FFFFFF" d="M103.765,821.693v-1.895h-5.862v11.803h5.862v-1.896h-3.967
				v-3.059h1.984v-1.896h-1.984v-3.059H103.765"/>
			<path id="Fill-5" sketch:type="MSShapeGroup" fill="#FFFFFF" d="M95.832,824.752h-2.887v1.896h0.989v2.521
				c0,0.296-0.242,0.537-0.538,0.537h-0.99c-0.298,0-0.541-0.243-0.541-0.539v-6.938c0-0.301,0.238-0.536,0.541-0.536h0.99
				c0.296,0,0.538,0.24,0.538,0.536v0.454h1.898v-0.946c0-1.07-0.871-1.938-1.942-1.938h-1.98c-1.07,0-1.942,0.868-1.942,1.938
				v7.925c0,1.069,0.872,1.939,1.942,1.939h1.98c1.071,0,1.942-0.87,1.942-1.939V824.752"/>
			<path id="Fill-6" sketch:type="MSShapeGroup" fill="#DA3082" d="M0.233,452.084h13.577v32.059H0.233V452.084z"/>
			<path id="Fill-7" sketch:type="MSShapeGroup" fill="#FFFFFF" d="M8.555,454.539v4.604H5.483v-4.604H2.41v12.285h3.073v-4.612
				h3.072v4.612h3.074v-12.285H8.555"/>
			<path id="Fill-8" sketch:type="MSShapeGroup" fill="#FF0000" d="M327.824,1.227c-2.714,0-5.371,0.134-7.976,0.392
				c-2.606-0.257-5.265-0.392-7.979-0.392c-146.787,0-131.756,383.315-131.756,383.315v33.348h49.326v-33.348
				c0,0-17.252-362.783,90.409-379.8c107.785,17.017,93.213,379.8,93.213,379.8v33.348h49.326v-33.348
				C462.389,384.542,474.613,1.227,327.824,1.227"/>
		</g>
	</g>
</g>
</svg>
