<?xml version="1.0" encoding="UTF-8" standalone="no"?>
<svg width="469px" height="822px" viewBox="0 0 469 822" version="1.1" xmlns="http://www.w3.org/2000/svg" xmlns:xlink="http://www.w3.org/1999/xlink" xmlns:sketch="http://www.bohemiancoding.com/sketch/ns">
    <!-- Generator: Sketch 3.0.4 (8054) - http://www.bohemiancoding.com/sketch -->
    <title>Imported Layers</title>
    <desc>Created with Sketch.</desc>
    <defs></defs>
    <g id="Designer-Flow" stroke="none" stroke-width="1" fill="none" fill-rule="evenodd" sketch:type="MSPage">
        <g id="--COLOR-PICKER" sketch:type="MSArtboardGroup" transform="translate(-486.000000, -70.000000)">
            <g id="Imported-Layers" sketch:type="MSLayerGroup" transform="translate(487.000000, 71.000000)">
                <path d="M252.363541,-0.121585909 C250.001115,-0.121585909 247.692984,0.00649245147 245.426164,0.230777139 C243.158164,0.00649245147 240.849443,-0.121585909 238.486426,-0.121585909 C110.799148,-0.121585909 123.876,333.592191 123.876,333.592191 L123.876,362.622892 L166.783869,362.622892 L166.783869,333.592191 C166.783869,333.592191 151.77541,17.7533134 245.426754,2.93990007 C339.184918,17.7533134 326.508787,333.592191 326.508787,333.592191 L326.508787,362.622892 L369.415475,362.622892 L369.415475,333.592191 C369.415475,333.592191 380.049049,-0.121585909 252.363541,-0.121585909" id="Fill-1" fill="#000000" sketch:type="MSShapeGroup"></path>
                <path d="M13.8198689,364.094318 L13.8198689,773.015472 L48.6554754,820.092827 L432.393639,820.092827 L467.228066,773.017832 L467.228066,364.094318 L13.8198689,364.094318" id="Fill-2" fill="#1A1918" sketch:type="MSShapeGroup"></path>
                <path d="M79.3074098,754.293012 L79.3074098,742.513935 L77.4194754,742.513935 L77.4194754,747.457051 L75.3527213,747.457051 L75.3527213,742.513935 L73.4630164,742.513935 L73.4630164,754.293012 L75.3527213,754.293012 L75.3527213,749.349306 L77.4194754,749.349306 L77.4194754,754.293012 L79.3074098,754.293012" id="Fill-3" fill="#DA3082" sketch:type="MSShapeGroup"></path>
                <path d="M87.2179672,742.513935 L85.3264918,742.513935 L85.3264918,751.862474 C85.3264918,752.158176 85.0857049,752.400168 84.7894426,752.400168 L83.8026885,752.400168 C83.5052459,752.400168 83.2632787,752.158176 83.2632787,751.862474 L83.2632787,742.513935 L81.3729836,742.513935 L81.3729836,752.356491 C81.3729836,753.423614 82.2399344,754.293012 83.3057705,754.293012 L85.2828197,754.293012 C86.3498361,754.293012 87.2179672,753.423614 87.2179672,752.356491 L87.2179672,742.513935" id="Fill-4" fill="#DA3082" sketch:type="MSShapeGroup"></path>
                <path d="M103.038492,744.405009 L103.038492,742.513935 L97.1940984,742.513935 L97.1940984,754.293012 L103.038492,754.293012 L103.038492,752.400168 L99.0838033,752.400168 L99.0838033,749.349306 L101.061443,749.349306 L101.061443,747.457051 L99.0838033,747.457051 L99.0838033,744.405009 L103.038492,744.405009" id="Fill-5" fill="#DA3082" sketch:type="MSShapeGroup"></path>
                <path d="M95.1297049,747.457051 L92.2502951,747.457051 L92.2502951,749.349306 L93.2370492,749.349306 L93.2370492,751.864245 C93.2370492,752.159947 92.9962623,752.400168 92.7011803,752.400168 L91.7144262,752.400168 C91.4169836,752.400168 91.1750164,752.158176 91.1750164,751.862474 L91.1750164,744.939751 C91.1750164,744.639917 91.4128525,744.405009 91.7144262,744.405009 L92.7011803,744.405009 C92.9962623,744.405009 93.2370492,744.644639 93.2370492,744.939751 L93.2370492,745.392451 L95.1297049,745.392451 L95.1297049,744.448685 C95.1297049,743.380972 94.2609836,742.513935 93.193377,742.513935 L91.2186885,742.513935 C90.1516721,742.513935 89.2823607,743.380972 89.2823607,744.448685 L89.2823607,752.356491 C89.2823607,753.423614 90.1516721,754.293012 91.2186885,754.293012 L93.193377,754.293012 C94.2609836,754.293012 95.1297049,753.423614 95.1297049,752.356491 L95.1297049,747.457051" id="Fill-6" fill="#DA3082" sketch:type="MSShapeGroup"></path>
                <path d="M-0.132196721,397.750596 L13.4049836,397.750596 L13.4049836,429.740675 L-0.132196721,429.740675 L-0.132196721,397.750596 Z" id="Fill-7" fill="#DA3082" sketch:type="MSShapeGroup"></path>
                <path d="M8.16491803,400.200021 L8.16491803,404.793725 L5.10196721,404.793725 L5.10196721,400.200021 L2.03842623,400.200021 L2.03842623,412.45954 L5.10196721,412.45954 L5.10196721,407.856982 L8.16491803,407.856982 L8.16491803,412.45954 L11.2296393,412.45954 L11.2296393,400.200021 L8.16491803,400.200021" id="Fill-8" fill="#FFFFFF" sketch:type="MSShapeGroup"></path>
            </g>
        </g>
    </g>
</svg>