<?xml version="1.0" encoding="utf-8"?>
<!-- Generator: Adobe Illustrator 16.0.4, SVG Export Plug-In . SVG Version: 6.00 Build 0)  -->
<!DOCTYPE svg PUBLIC "-//W3C//DTD SVG 1.1//EN" "http://www.w3.org/Graphics/SVG/1.1/DTD/svg11.dtd">
<svg version="1.1" id="Layer_1" xmlns:sketch="http://www.bohemiancoding.com/sketch/ns"
	 xmlns="http://www.w3.org/2000/svg" xmlns:xlink="http://www.w3.org/1999/xlink" x="0px" y="0px" width="469px" height="822px"
	 viewBox="0 0 469 822" enable-background="new 0 0 469 822" xml:space="preserve">
<title>Imported Layers</title>
<desc>Created with Sketch.</desc>
<path id="Fill-1_2_" sketch:type="MSShapeGroup" fill="#FFFFFF" stroke="#000000" stroke-miterlimit="10" d="M370.415,366.513
	v-31.921c0,0,10.634-333.714-117.052-333.714c-2.362,0-4.67,0.128-6.938,0.353c-2.268-0.225-4.575-0.353-6.938-0.353
	c-127.688,0-114.609,333.714-114.609,333.714v31.921h42.907v-31.921c0,0-15.008-315.839,78.643-330.652
	c93.759,14.813,81.082,330.652,81.082,330.652v32.031L370.415,366.513z"/>
<path id="Fill-2" sketch:type="MSShapeGroup" fill="#FFFFFF" stroke="#000000" stroke-miterlimit="10" d="M14.82,365.094v408.921
	l34.835,47.077h383.738l34.836-47.075V365.094H14.82"/>
<path id="Fill-3" sketch:type="MSShapeGroup" fill="#DA3082" d="M80.308,755.293v-11.779H78.42v4.943h-2.067v-4.943h-1.89v11.779
	h1.89v-4.943h2.067v4.943H80.308"/>
<path id="Fill-4" sketch:type="MSShapeGroup" fill="#DA3082" d="M88.218,743.514h-1.891v9.351c0,0.296-0.241,0.538-0.537,0.538
	h-0.987c-0.297,0-0.54-0.242-0.54-0.538v-9.351h-1.89v9.845c0,1.065,0.867,1.937,1.933,1.937h1.977c1.067,0,1.935-0.869,1.935-1.937
	V743.514"/>
<path id="Fill-5" sketch:type="MSShapeGroup" fill="#DA3082" d="M104.039,745.405v-1.894h-5.844v11.779h5.844V753.4h-3.955v-3.053
	h1.978v-1.893h-1.978v-3.052L104.039,745.405"/>
<path id="Fill-6" sketch:type="MSShapeGroup" fill="#DA3082" d="M96.13,748.457h-2.88v1.893h0.987v2.517
	c0,0.296-0.241,0.536-0.536,0.536h-0.987c-0.297,0-0.54-0.242-0.54-0.538v-6.923c0-0.302,0.238-0.534,0.54-0.534h0.987
	c0.295,0,0.536,0.237,0.536,0.534v0.451h1.893v-0.942c0-1.067-0.869-1.937-1.937-1.937h-1.975c-1.067,0-1.937,0.867-1.937,1.937
	v7.908c0,1.065,0.87,1.937,1.937,1.937h1.975c1.067,0,1.937-0.869,1.937-1.937V748.457"/>
<path id="Fill-7" sketch:type="MSShapeGroup" fill="#DA3082" d="M0.868,398.751h13.537v31.989H0.868V398.751z"/>
<path id="Fill-8" sketch:type="MSShapeGroup" fill="#FFFFFF" d="M9.165,401.2v4.594H6.102V401.2H3.039v12.26h3.063v-4.603h3.063
	v4.603h3.064V401.2H9.165"/>
</svg>
