<?xml version="1.0" encoding="UTF-8" standalone="no"?>
<svg width="615px" height="902px" viewBox="0 0 615 902" version="1.1" xmlns="http://www.w3.org/2000/svg" xmlns:xlink="http://www.w3.org/1999/xlink" xmlns:sketch="http://www.bohemiancoding.com/sketch/ns">
    <!-- Generator: Sketch 3.0.4 (8054) - http://www.bohemiancoding.com/sketch -->
    <title>Big Bag</title>
    <desc>Created with Sketch.</desc>
    <defs></defs>
    <g id="Designer-Flow" stroke="none" stroke-width="1" fill="none" fill-rule="evenodd" sketch:type="MSPage">
        <g id="--BIG-BAG" sketch:type="MSArtboardGroup" transform="translate(-413.000000, -20.000000)">
            <g id="Big-Bag" sketch:type="MSLayerGroup" transform="translate(413.000000, 20.000000)">
                <path d="M13.8650241,418.356472 L13.8650241,851.613393 L53.9116458,901.891169 L574.516545,901.891169 L614.563758,851.615759 L614.563758,418.356472 L13.8650241,418.356472" id="Fill-1" fill="#1A1918" sketch:type="MSShapeGroup"></path>
                <path d="M79.9630221,831.602005 L79.9630221,819.798522 L78.0694851,819.798522 L78.0694851,824.752129 L75.9965977,824.752129 L75.9965977,819.798522 L74.1018768,819.798522 L74.1018768,831.602005 L75.9965977,831.602005 L75.9965977,826.647807 L78.0694851,826.647807 L78.0694851,831.602005 L79.9630221,831.602005" id="Fill-2" fill="#DA3082" sketch:type="MSShapeGroup"></path>
                <path d="M87.8970549,819.798522 L85.9999663,819.798522 L85.9999663,829.166901 C85.9999663,829.46323 85.7584649,829.705735 85.4613234,829.705735 L84.471641,829.705735 C84.1733157,829.705735 83.9306304,829.46323 83.9306304,829.166901 L83.9306304,819.798522 L82.0347257,819.798522 L82.0347257,829.661966 C82.0347257,830.731353 82.9042493,831.602005 83.9732483,831.602005 L85.9561646,831.602005 C87.0263474,831.602005 87.8970549,830.731353 87.8970549,829.661966 L87.8970549,819.798522" id="Fill-3" fill="#DA3082" sketch:type="MSShapeGroup"></path>
                <path d="M103.764528,821.693609 L103.764528,819.798522 L97.9027911,819.798522 L97.9027911,831.602005 L103.764528,831.602005 L103.764528,829.705735 L99.7981039,829.705735 L99.7981039,826.647807 L101.781612,826.647807 L101.781612,824.752129 L99.7981039,824.752129 L99.7981039,821.693609 L103.764528,821.693609" id="Fill-4" fill="#DA3082" sketch:type="MSShapeGroup"></path>
                <path d="M95.8322714,824.752129 L92.9449086,824.752129 L92.9449086,826.647807 L93.933999,826.647807 L93.933999,829.168675 C93.933999,829.465005 93.6924976,829.705735 93.3965399,829.705735 L92.4068576,829.705735 C92.1085322,829.705735 91.865847,829.46323 91.865847,829.166901 L91.865847,822.229486 C91.865847,821.929016 92.1037969,821.693609 92.4068576,821.693609 L93.3965399,821.693609 C93.6924976,821.693609 93.933999,821.933748 93.933999,822.229486 L93.933999,822.683148 L95.8322714,822.683148 L95.8322714,821.737378 C95.8322714,820.667399 94.9609721,819.798522 93.8901973,819.798522 L91.9096487,819.798522 C90.8394658,819.798522 89.9675746,820.667399 89.9675746,821.737378 L89.9675746,829.661966 C89.9675746,830.731353 90.8394658,831.602005 91.9096487,831.602005 L93.8901973,831.602005 C94.9609721,831.602005 95.8322714,830.731353 95.8322714,829.661966 L95.8322714,824.752129" id="Fill-5" fill="#DA3082" sketch:type="MSShapeGroup"></path>
                <path d="M0.233214629,452.084174 L13.8105679,452.084174 L13.8105679,484.142142 L0.233214629,484.142142 L0.233214629,452.084174 Z" id="Fill-6" fill="#DA3082" sketch:type="MSShapeGroup"></path>
                <path d="M8.55495188,454.538797 L8.55495188,459.14225 L5.48350337,459.14225 L5.48350337,454.538797 L2.41027911,454.538797 L2.41027911,466.824333 L5.48350337,466.824333 L5.48350337,462.212008 L8.55495188,462.212008 L8.55495188,466.824333 L11.62936,466.824333 L11.62936,454.538797 L8.55495188,454.538797" id="Fill-7" fill="#FFFFFF" sketch:type="MSShapeGroup"></path>
                <path d="M327.824596,0.177442623 C325.110664,0.177442623 322.453556,0.311707541 319.848537,0.568999344 C317.242334,0.311707541 314.584042,0.177442623 311.870111,0.177442623 C165.08281,0.177442623 180.1145,383.491954 180.1145,383.491954 L180.1145,416.839929 L229.440577,416.839929 L229.440577,383.491954 C229.440577,383.491954 212.188614,20.7093285 319.849721,3.69258098 C427.63513,20.7093285 413.062767,383.491954 413.062767,383.491954 L413.062767,416.839929 L462.388845,416.839929 L462.388845,383.491954 C462.388845,383.491954 474.61308,0.177442623 327.824596,0.177442623" id="Fill-8" fill="#000000" sketch:type="MSShapeGroup"></path>
            </g>
        </g>
    </g>
</svg>