<?xml version="1.0" encoding="UTF-8" standalone="no"?>
<svg width="32px" height="40px" viewBox="0 0 32 40" version="1.1" xmlns="http://www.w3.org/2000/svg" xmlns:xlink="http://www.w3.org/1999/xlink" xmlns:sketch="http://www.bohemiancoding.com/sketch/ns">
    <!-- Generator: Sketch 3.0.4 (8054) - http://www.bohemiancoding.com/sketch -->
    <title>Imported Layers</title>
    <desc>Created with Sketch.</desc>
    <defs></defs>
    <g id="Designer-Flow" stroke="none" stroke-width="1" fill="none" fill-rule="evenodd" sketch:type="MSPage">
        <g id="--BIG-BAG" sketch:type="MSArtboardGroup" transform="translate(-75.000000, -942.000000)" fill="#000000">
            <g id="Bag-Size" sketch:type="MSLayerGroup" transform="translate(30.000000, 942.000000)">
                <path d="M69,8 C69,3.582 65.418,0 61,0 C56.583,0 53,3.582 53,8 L53,13.5 L45,13.5 L45,37.5 L47,39.5 L75,39.5 L77,37.5 L77,13.5 L69,13.5 L69,8 Z M57,8 C57,5.794 58.795,4 61,4 C63.205,4 65,5.794 65,8 L65,13.5 L57,13.5 L57,8 L57,8 Z" id="Imported-Layers" sketch:type="MSShapeGroup"></path>
            </g>
        </g>
    </g>
</svg>