<?xml version="1.0" encoding="UTF-8" standalone="no"?>
<svg width="31px" height="29px" viewBox="0 0 31 29" version="1.1" xmlns="http://www.w3.org/2000/svg" xmlns:xlink="http://www.w3.org/1999/xlink" xmlns:sketch="http://www.bohemiancoding.com/sketch/ns">
    <!-- Generator: Sketch 3.0.4 (8054) - http://www.bohemiancoding.com/sketch -->
    <title>Imported Layers</title>
    <desc>Created with Sketch.</desc>
    <defs></defs>
    <g id="Designer-Flow" stroke="none" stroke-width="1" fill="none" fill-rule="evenodd" sketch:type="MSPage">
        <g id="--CLICK-ADD-ICON" sketch:type="MSArtboardGroup" transform="translate(-85.000000, -600.000000)" fill="#FFFFFF">
            <g id="Radial-Menu" sketch:type="MSLayerGroup" transform="translate(68.000000, 409.000000)">
                <g id="Add-Type" transform="translate(0.000000, 172.000000)" sketch:type="MSShapeGroup">
                    <g id="Imported-Layers" transform="translate(18.000000, 20.000000)">
                        <path d="M26.75,2.539 C27.762,6.589 27.717,13.423 27.586,16.107 L27.583,16.156 L27.583,16.205 C27.583,19.843 24.859,26 14.65,26 C4.441,26 1.718,19.843 1.718,16.205 L1.718,16.156 L1.715,16.107 C1.584,13.423 1.539,6.589 2.551,2.539 C3.701,3.215 5.365,4.349 7.403,6.17 L8.33,7 L9.483,6.535 C11.021,5.916 12.808,5.588 14.65,5.588 C16.494,5.588 18.28,5.916 19.816,6.535 L20.971,7 L21.898,6.17 C23.935,4.349 25.599,3.215 26.75,2.539 M27.878,-0.244 C27.878,-0.244 25.038,0.679 20.564,4.68 C18.849,3.988 16.821,3.588 14.65,3.588 C12.479,3.588 10.453,3.988 8.736,4.68 C4.263,0.679 1.423,-0.244 1.423,-0.244 C-0.87,4.292 -0.282,16.205 -0.282,16.205 C-0.282,20.331 2.719,28 14.65,28 C26.582,28 29.583,20.331 29.583,16.205 C29.583,16.205 30.171,4.292 27.878,-0.244" id="Fill-1"></path>
                        <path d="M8.226,14.916 C9.24,14.916 10.065,15.74 10.065,16.753 C10.065,17.767 9.24,18.592 8.226,18.592 C7.213,18.592 6.389,17.767 6.389,16.753 C6.389,15.74 7.213,14.916 8.226,14.916 M8.226,12.915 C6.107,12.915 4.389,14.634 4.389,16.753 C4.389,18.873 6.107,20.592 8.226,20.592 C10.347,20.592 12.065,18.873 12.065,16.753 C12.065,14.634 10.347,12.915 8.226,12.915" id="Fill-2"></path>
                        <path d="M20.959,14.916 C21.972,14.916 22.797,15.74 22.797,16.753 C22.797,17.767 21.972,18.592 20.959,18.592 C19.945,18.592 19.121,17.767 19.121,16.753 C19.121,15.74 19.945,14.916 20.959,14.916 M20.959,12.915 C18.839,12.915 17.121,14.634 17.121,16.753 C17.121,18.873 18.839,20.592 20.959,20.592 C23.079,20.592 24.797,18.873 24.797,16.753 C24.797,14.634 23.079,12.915 20.959,12.915" id="Fill-3"></path>
                    </g>
                </g>
            </g>
        </g>
    </g>
</svg>