<?xml version="1.0" encoding="UTF-8" standalone="no"?>
<svg width="31px" height="31px" viewBox="0 0 31 31" version="1.1" xmlns="http://www.w3.org/2000/svg" xmlns:xlink="http://www.w3.org/1999/xlink" xmlns:sketch="http://www.bohemiancoding.com/sketch/ns">
    <!-- Generator: Sketch 3.2.2 (9983) - http://www.bohemiancoding.com/sketch -->
    <title>Imported Layers 2</title>
    <desc>Created with Sketch.</desc>
    <defs></defs>
    <g id="Bag-Maker" stroke="none" stroke-width="1" fill="none" fill-rule="evenodd" sketch:type="MSPage">
        <g id="Default-Bag-Creation" sketch:type="MSArtboardGroup" transform="translate(-704.000000, -946.000000)">
            <g id="Imported-Layers-2" sketch:type="MSLayerGroup" transform="translate(705.000000, 947.000000)">
                <path d="M21.2070297,11.020099 L27.6368317,7.30752475 C25.0690099,2.86930693 20.2734653,-0.118811881 14.7766337,-0.118811881 L14.7766337,7.30693069 C17.5253465,7.30693069 19.9229703,8.8009901 21.2070297,11.020099" id="Fill-1" fill="#FF6C00" sketch:type="MSShapeGroup"></path>
                <path d="M7.35089109,14.7326733 C7.35089109,13.379703 7.71475248,12.1122772 8.34653465,11.020099 L1.91643564,7.30752475 C0.652277228,9.49247525 -0.0748514851,12.0267327 -0.0748514851,14.7326733 C-0.0748514851,17.4383168 0.652277228,19.9725743 1.91643564,22.1575248 L8.34653465,18.4452475 C7.71475248,17.3527723 7.35089109,16.0853465 7.35089109,14.7326733" id="Fill-2" fill="#454470" sketch:type="MSShapeGroup"></path>
                <path d="M14.7766337,7.30693069 L14.7766337,-0.118811881 C9.28039604,-0.118811881 4.48485149,2.86930693 1.91643564,7.30752475 L8.34653465,11.020099 C9.63089109,8.8009901 12.0285149,7.30693069 14.7766337,7.30693069" id="Fill-3" fill="#DC143A" sketch:type="MSShapeGroup"></path>
                <path d="M27.6368317,7.30752475 L21.2070297,11.020099 C21.8388119,12.1125743 22.2023762,13.379703 22.2023762,14.7326733 C22.2023762,16.0853465 21.8388119,17.3524752 21.2070297,18.4449505 L27.6368317,22.1575248 C28.9009901,19.9725743 29.6281188,17.4383168 29.6281188,14.7326733 C29.6281188,12.0267327 28.9009901,9.49247525 27.6368317,7.30752475" id="Fill-4" fill="#FFD535" sketch:type="MSShapeGroup"></path>
                <path d="M8.34653465,18.4452475 L1.91643564,22.1575248 C4.48485149,26.5957426 9.28039604,29.5841584 14.7766337,29.5841584 L14.7766337,22.1584158 C12.0285149,22.1584158 9.63089109,20.6640594 8.34653465,18.4452475" id="Fill-5" fill="#084F87" sketch:type="MSShapeGroup"></path>
                <path d="M14.7766337,22.1584158 L14.7766337,29.5841584 C20.2734653,29.5841584 25.0690099,26.5957426 27.6368317,22.1575248 L21.2070297,18.4449505 C19.9229703,20.6640594 17.5253465,22.1584158 14.7766337,22.1584158" id="Fill-6" fill="#007D55" sketch:type="MSShapeGroup"></path>
                <path id="Fill-7" fill="#565654" sketch:type="MSShapeGroup"></path>
            </g>
        </g>
    </g>
</svg>