<?xml version="1.0" encoding="utf-8"?>
<!-- Generator: Adobe Illustrator 16.0.4, SVG Export Plug-In . SVG Version: 6.00 Build 0)  -->
<!DOCTYPE svg PUBLIC "-//W3C//DTD SVG 1.1//EN" "http://www.w3.org/Graphics/SVG/1.1/DTD/svg11.dtd">
<svg version="1.1" id="Layer_1" xmlns:sketch="http://www.bohemiancoding.com/sketch/ns"
	 xmlns="http://www.w3.org/2000/svg" xmlns:xlink="http://www.w3.org/1999/xlink" x="0px" y="0px" width="25px" height="25px"
	 viewBox="0 0 25 25" enable-background="new 0 0 25 25" xml:space="preserve">
<title>Imported Layers</title>
<desc>Created with Sketch.</desc>
<g>
	<path fill="#999999" d="M16.923,2c-1.661,0-3.212,0.721-4.423,2.043C11.29,2.722,9.739,2,8.077,2C4.914,2,1.5,4.756,1.5,9.21
		c0,4.313,3.582,7.274,6.196,9.437c0.988,0.819,1.708,1.396,2.267,1.84c0.893,0.715,1.341,1.072,1.814,1.566l0.723,0.756
		l0.723-0.756c0.477-0.496,0.924-0.854,1.817-1.568c0.559-0.445,1.277-1.021,2.279-1.851c2.607-2.157,6.181-5.11,6.181-9.424
		C23.5,4.756,20.086,2,16.923,2z M3.5,9.21C3.5,5.992,5.876,4,8.077,4c1.394,0,2.665,0.79,3.58,2.224l0.843,1.32l0.843-1.32
		C14.259,4.79,15.53,4,16.923,4C19.124,4,21.5,5.992,21.5,9.21c0,3.369-3.03,5.877-5.472,7.896
		c-0.975,0.808-1.686,1.375-2.266,1.838c-0.524,0.42-0.917,0.732-1.264,1.037c-0.356-0.312-0.767-0.642-1.348-1.104
		c-0.543-0.435-1.238-0.99-2.193-1.782C6.527,15.085,3.5,12.583,3.5,9.21z"/>
	<path fill="#FFFFFF" d="M8.959,17.096c-2.432-2.011-5.458-4.513-5.458-7.886C3.5,5.992,5.876,4,8.077,4
		c1.394,0,2.665,0.79,3.58,2.224l0.843,1.32l0.843-1.32C14.259,4.79,15.53,4,16.923,4C19.124,4,21.5,5.992,21.5,9.21
		c0,3.369-3.03,5.877-5.472,7.896c-0.975,0.808-1.686,1.375-2.266,1.838c-0.524,0.42-0.917,0.732-1.264,1.037
		c-0.356-0.312-0.767-0.642-1.348-1.104C10.609,18.441,9.914,17.887,8.959,17.096"/>
</g>
</svg>
