<?xml version="1.0" encoding="utf-8"?>
<!-- Generator: Adobe Illustrator 16.0.4, SVG Export Plug-In . SVG Version: 6.00 Build 0)  -->
<!DOCTYPE svg PUBLIC "-//W3C//DTD SVG 1.1//EN" "http://www.w3.org/Graphics/SVG/1.1/DTD/svg11.dtd">
<svg version="1.1" id="Layer_1" xmlns:sketch="http://www.bohemiancoding.com/sketch/ns"
	 xmlns="http://www.w3.org/2000/svg" xmlns:xlink="http://www.w3.org/1999/xlink" x="0px" y="0px" width="25px" height="25px"
	 viewBox="0 0 25 25" enable-background="new 0 0 25 25" xml:space="preserve">
<title>Imported Layers</title>
<desc>Created with Sketch.</desc>
<path fill="#231F20" d="M17.423,1C15.762,1,14.211,1.721,13,3.043C11.79,1.722,10.239,1,8.577,1C5.414,1,2,3.756,2,8.21
	c0,4.313,3.582,7.274,6.196,9.437c0.988,0.819,1.708,1.396,2.267,1.84c0.893,0.715,1.341,1.072,1.814,1.566L13,21.809l0.723-0.756
	c0.477-0.496,0.924-0.854,1.817-1.568c0.559-0.445,1.277-1.021,2.279-1.851C20.427,15.477,24,12.523,24,8.21
	C24,3.756,20.586,1,17.423,1z M4,8.21C4,4.992,6.376,3,8.577,3c1.394,0,2.665,0.79,3.58,2.224L13,6.544l0.843-1.32
	C14.759,3.79,16.03,3,17.423,3C19.624,3,22,4.992,22,8.21c0,3.369-3.03,5.877-5.472,7.896c-0.975,0.808-1.686,1.375-2.266,1.838
	c-0.524,0.42-0.917,0.732-1.264,1.037c-0.356-0.312-0.767-0.642-1.348-1.104c-0.543-0.435-1.238-0.99-2.193-1.782
	C7.027,14.085,4,11.583,4,8.21z"/>
</svg>
