<?xml version="1.0" encoding="utf-8"?>
<!-- Generator: Adobe Illustrator 16.0.4, SVG Export Plug-In . SVG Version: 6.00 Build 0)  -->
<!DOCTYPE svg PUBLIC "-//W3C//DTD SVG 1.1//EN" "http://www.w3.org/Graphics/SVG/1.1/DTD/svg11.dtd">
<svg version="1.1" id="Layer_1" xmlns="http://www.w3.org/2000/svg" xmlns:xlink="http://www.w3.org/1999/xlink" x="0px" y="0px"
	 width="288.642px" height="114.943px" viewBox="0 0 288.642 114.943" enable-background="new 0 0 288.642 114.943"
	 xml:space="preserve">
<g>
	<polygon points="57.036,114.943 57.036,0 38.608,0 38.608,48.238 18.438,48.238 18.438,0 0,0 0,114.943 18.438,114.943 
		18.438,66.699 38.608,66.699 38.608,114.943 	"/>
	<path d="M134.241,0h-18.46v91.229c0,2.886-2.351,5.248-5.242,5.248h-9.63c-2.902,0-5.265-2.362-5.265-5.248V0H77.195v96.049
		c0,10.412,8.459,18.894,18.865,18.894h19.293c10.417,0,18.888-8.482,18.888-18.894V0z"/>
	<polygon points="288.642,18.449 288.642,0 231.606,0 231.606,114.943 288.642,114.943 288.642,96.477 250.045,96.477 
		250.045,66.699 269.349,66.699 269.349,48.238 250.045,48.238 250.045,18.449 	"/>
	<path d="M211.458,48.238h-28.102v18.46h9.63v24.547c0,2.885-2.351,5.231-5.231,5.231h-9.63c-2.902,0-5.265-2.362-5.265-5.248
		v-67.56c0-2.925,2.317-5.22,5.265-5.22h9.63c2.88,0,5.231,2.34,5.231,5.22v4.421h18.472v-9.213C211.458,8.459,202.977,0,192.559,0
		h-19.271c-10.417,0-18.899,8.459-18.899,18.877v77.172c0,10.412,8.482,18.894,18.899,18.894h19.271
		c10.417,0,18.899-8.482,18.899-18.894V48.238z"/>
</g>
</svg>
