<?xml version="1.0" encoding="UTF-8" standalone="no"?>
<svg width="31px" height="25px" viewBox="0 0 31 25" version="1.1" xmlns="http://www.w3.org/2000/svg" xmlns:xlink="http://www.w3.org/1999/xlink" xmlns:sketch="http://www.bohemiancoding.com/sketch/ns">
    <!-- Generator: Sketch 3.0.4 (8054) - http://www.bohemiancoding.com/sketch -->
    <title>Imported Layers</title>
    <desc>Created with Sketch.</desc>
    <defs></defs>
    <g id="Designer-Flow" stroke="none" stroke-width="1" fill="none" fill-rule="evenodd" sketch:type="MSPage">
        <g id="--CLICK-ADD-ICON" sketch:type="MSArtboardGroup" transform="translate(-171.000000, -515.000000)">
            <g id="Radial-Menu" sketch:type="MSLayerGroup" transform="translate(68.000000, 409.000000)">
                <g id="Add-Image" transform="translate(86.000000, 86.000000)" sketch:type="MSShapeGroup">
                    <g id="Imported-Layers" transform="translate(18.000000, 21.000000)">
                        <path d="M1.584,1.666 L27.584,1.666 L27.584,21.333 L1.584,21.333 L1.584,1.666 Z M-0.416,23.333 L29.584,23.333 L29.584,-0.334 L-0.416,-0.334 L-0.416,23.333 Z" id="Fill-1" fill="#FFFFFF"></path>
                        <path d="M0.501,22.102 L8.667,15.384 L11.584,17.999 L20.084,10.666 L28.667,22.102" id="Stroke-2" stroke="#FFFFFF" stroke-width="2"></path>
                        <path d="M7.584,5.666 C8.689,5.666 9.584,6.562 9.584,7.666 C9.584,8.771 8.689,9.666 7.584,9.666 C6.478,9.666 5.584,8.771 5.584,7.666 C5.584,6.562 6.478,5.666 7.584,5.666 M7.584,3.666 C5.379,3.666 3.584,5.461 3.584,7.666 C3.584,9.872 5.379,11.666 7.584,11.666 C9.789,11.666 11.584,9.872 11.584,7.666 C11.584,5.461 9.789,3.666 7.584,3.666" id="Fill-3" fill="#FFFFFF"></path>
                    </g>
                </g>
            </g>
        </g>
    </g>
</svg>