<?xml version="1.0" encoding="UTF-8" standalone="no"?>
<svg width="32px" height="24px" viewBox="0 0 32 24" version="1.1" xmlns="http://www.w3.org/2000/svg" xmlns:xlink="http://www.w3.org/1999/xlink" xmlns:sketch="http://www.bohemiancoding.com/sketch/ns">
    <!-- Generator: Sketch 3.0.4 (8053) - http://www.bohemiancoding.com/sketch -->
    <title>Kerning Icon</title>
    <desc>Created with Sketch.</desc>
    <defs></defs>
    <g id="Designer-Flow" stroke="none" stroke-width="1" fill="none" fill-rule="evenodd" sketch:type="MSPage">
        <g id="--DEFAULT" sketch:type="MSArtboardGroup" transform="translate(-1000.000000, -674.000000)">
            <g id="Type-Popover" sketch:type="MSLayerGroup" transform="translate(979.000000, 571.000000)">
                <g id="Kerning-Icon" transform="translate(22.000000, 104.000000)" sketch:type="MSShapeGroup">
                    <path d="M0,18.829 L30,18.829 M2.828,16.001 L0,18.829 L2.828,21.657 M27.172,21.656 L30,18.828 L27.172,16" id="Imported-Layers" stroke="#FFFFFF"></path>
                    <path d="M13.936,11 L8.72,-0.28 L7.92,-0.28 L2.704,11 L3.568,11 L4.992,7.864 L11.6,7.864 L13.024,11 L13.936,11 Z M11.248,7.112 L5.344,7.112 L8.304,0.632 L11.248,7.112 Z M27.5760001,11 L22.3600001,-0.28 L21.5600001,-0.28 L16.3440001,11 L17.2080001,11 L18.6320001,7.864 L25.2400001,7.864 L26.6640001,11 L27.5760001,11 Z M24.8880001,7.112 L18.9840001,7.112 L21.9440001,0.632 L24.8880001,7.112 Z" id="AA-2" fill="#FFFFFF"></path>
                </g>
            </g>
        </g>
    </g>
</svg>