<?xml version="1.0" encoding="UTF-8" standalone="no"?>
<svg width="24px" height="22px" viewBox="0 0 24 22" version="1.1" xmlns="http://www.w3.org/2000/svg" xmlns:xlink="http://www.w3.org/1999/xlink" xmlns:sketch="http://www.bohemiancoding.com/sketch/ns">
    <!-- Generator: Sketch 3.0.4 (8053) - http://www.bohemiancoding.com/sketch -->
    <title>Leading Icon</title>
    <desc>Created with Sketch.</desc>
    <defs></defs>
    <g id="Designer-Flow" stroke="none" stroke-width="1" fill="none" fill-rule="evenodd" sketch:type="MSPage">
        <g id="--DEFAULT" sketch:type="MSArtboardGroup" transform="translate(-1003.000000, -716.000000)">
            <g id="Type-Popover" sketch:type="MSLayerGroup" transform="translate(979.000000, 571.000000)">
                <g id="Leading-Icon" transform="translate(25.000000, 145.000000)" sketch:type="MSShapeGroup">
                    <path d="M2.828,0 L2.828,21.999 M5.656,2.828 L2.828,0 L0,2.828 M0.002,19.171 L2.83,21.999 L5.658,19.171" id="Imported-Layers" stroke="#FFFFFF"></path>
                    <path d="M22.444,10 L17.88,0.13 L17.18,0.13 L12.616,10 L13.372,10 L14.618,7.256 L20.4,7.256 L21.646,10 L22.444,10 Z M20.092,6.598 L14.926,6.598 L17.516,0.928 L20.092,6.598 Z M22.444,22 L17.88,12.13 L17.18,12.13 L12.616,22 L13.372,22 L14.618,19.256 L20.4,19.256 L21.646,22 L22.444,22 Z M20.092,18.598 L14.926,18.598 L17.516,12.928 L20.092,18.598 Z" id="A-2" fill="#FFFFFF"></path>
                </g>
            </g>
        </g>
    </g>
</svg>