<?xml version="1.0" encoding="UTF-8" standalone="no"?>
<svg width="17px" height="30px" viewBox="0 0 17 30" version="1.1" xmlns="http://www.w3.org/2000/svg" xmlns:xlink="http://www.w3.org/1999/xlink" xmlns:sketch="http://www.bohemiancoding.com/sketch/ns">
    <!-- Generator: Sketch 3.3.2 (12043) - http://www.bohemiancoding.com/sketch -->
    <title>Rectangle 115</title>
    <desc>Created with Sketch.</desc>
    <defs></defs>
    <g id="Page-4" stroke="none" stroke-width="1" fill="none" fill-rule="evenodd" sketch:type="MSPage">
        <g id="Bag-Detail,-Short-Screen-Copy-5" sketch:type="MSArtboardGroup" transform="translate(-1296.000000, -33.000000)" fill="#1A1919">
            <g id="Rectangle-32-+-Rectangle-231-+-Latest-designs-+-Triangle-1-+-Bottom-Buttons" sketch:type="MSLayerGroup" transform="translate(1194.000000, 15.000000)">
                <g id="Bottom-Buttons" sketch:type="MSShapeGroup">
                    <g id="Like-Copy" transform="translate(81.000000, 0.000000)">
                        <g id="Left-Arrow" transform="translate(36.707107, 33.000000) rotate(-225.000000) translate(-36.707107, -33.000000) translate(25.207107, 21.500000)">
                            <path d="M19,19 L2.991155,19 C1.88967395,19 1,19.8954305 1,21 C1,22.1122704 1.89147046,23 2.991155,23 L21.008845,23 C21.5581155,23 22.0547165,22.7773358 22.4145914,22.4171088 C22.7792411,22.05384 23,21.5572316 23,21.008845 L23,2.991155 C23,1.88967395 22.1045695,1 21,1 C19.8877296,1 19,1.89147046 19,2.991155 L19,19 Z" id="Rectangle-115"></path>
                        </g>
                    </g>
                </g>
            </g>
        </g>
    </g>
</svg>