<?xml version="1.0" encoding="utf-8"?>
<!-- Generator: Adobe Illustrator 16.0.4, SVG Export Plug-In . SVG Version: 6.00 Build 0)  -->
<!DOCTYPE svg PUBLIC "-//W3C//DTD SVG 1.1//EN" "http://www.w3.org/Graphics/SVG/1.1/DTD/svg11.dtd">
<svg version="1.1" id="Layer_1" xmlns="http://www.w3.org/2000/svg" xmlns:xlink="http://www.w3.org/1999/xlink" x="0px" y="0px"
	 width="148.556px" height="31.682px" viewBox="0 0 148.556 31.682" enable-background="new 0 0 148.556 31.682"
	 xml:space="preserve">
<g>
	<path d="M0,23.693h5.292v-8.288h6.776v8.288h5.292V2.973h-5.292v7.784H5.292V2.973H0V23.693L0,23.693z M34.916,8.153h-4.648v8.54
		c0,0.616-0.075,1.13-0.224,1.54c-0.149,0.411-0.35,0.732-0.602,0.966s-0.537,0.401-0.854,0.504
		c-0.317,0.104-0.644,0.154-0.98,0.154c-0.616,0-1.097-0.112-1.442-0.336c-0.346-0.225-0.593-0.494-0.742-0.812
		c-0.149-0.316-0.238-0.657-0.266-1.021c-0.028-0.364-0.042-0.677-0.042-0.938V8.153h-4.648v9.296c0,0.542,0.014,1.022,0.042,1.442
		c0.028,0.42,0.093,0.812,0.196,1.176c0.103,0.364,0.242,0.719,0.42,1.063c0.177,0.346,0.424,0.715,0.742,1.106
		c0.336,0.43,0.718,0.774,1.148,1.036c0.429,0.262,0.858,0.462,1.288,0.602c0.43,0.141,0.831,0.229,1.204,0.267
		c0.374,0.037,0.681,0.056,0.924,0.056c0.298,0,0.63-0.019,0.994-0.056c0.364-0.038,0.732-0.131,1.106-0.28s0.728-0.364,1.064-0.644
		c0.336-0.28,0.625-0.673,0.868-1.177h0.056v1.652h4.396V8.153L34.916,8.153z M53.983,8.153h-4.648v1.456H49.28
		c-0.43-0.672-1.032-1.167-1.806-1.484c-0.775-0.317-1.601-0.476-2.478-0.476c-1.008,0-1.984,0.187-2.926,0.56
		s-1.778,0.919-2.506,1.638c-0.728,0.719-1.312,1.596-1.75,2.632s-0.658,2.217-0.658,3.542c0,1.251,0.21,2.38,0.63,3.388
		s0.989,1.867,1.708,2.576c0.718,0.71,1.549,1.256,2.492,1.638c0.942,0.383,1.946,0.574,3.01,0.574c0.616,0,1.157-0.074,1.624-0.224
		c0.466-0.149,0.877-0.331,1.232-0.546c0.354-0.215,0.648-0.453,0.882-0.715c0.233-0.261,0.406-0.504,0.518-0.728h0.056v0.476
		c0,1.046-0.168,1.853-0.504,2.423c-0.336,0.568-0.724,0.989-1.162,1.26c-0.439,0.271-0.864,0.429-1.274,0.476
		c-0.411,0.047-0.691,0.07-0.84,0.07c-0.075,0-0.229-0.01-0.462-0.028s-0.49-0.074-0.77-0.168c-0.28-0.094-0.555-0.242-0.826-0.448
		c-0.271-0.205-0.49-0.504-0.658-0.896h-5.376c0.074,0.56,0.266,1.157,0.574,1.792c0.308,0.635,0.77,1.223,1.386,1.764
		c0.616,0.541,1.4,0.994,2.352,1.358s2.1,0.546,3.444,0.546c0.952,0,1.843-0.098,2.674-0.294c0.83-0.196,1.582-0.462,2.254-0.798
		s1.255-0.729,1.75-1.176c0.494-0.448,0.891-0.915,1.19-1.4c0.373-0.653,0.621-1.382,0.742-2.184
		c0.121-0.804,0.182-1.783,0.182-2.94V8.153L53.983,8.153z M42.111,14.299c0.206-0.476,0.48-0.886,0.826-1.232
		c0.345-0.345,0.742-0.611,1.19-0.798c0.448-0.187,0.924-0.28,1.428-0.28c0.522,0,1.012,0.094,1.47,0.28s0.858,0.453,1.204,0.798
		c0.345,0.346,0.616,0.766,0.812,1.26c0.196,0.495,0.294,1.05,0.294,1.666c0,0.561-0.093,1.078-0.28,1.554
		c-0.187,0.477-0.448,0.883-0.784,1.219s-0.737,0.602-1.204,0.798s-0.98,0.294-1.54,0.294c-0.485,0-0.952-0.094-1.4-0.28
		c-0.448-0.187-0.845-0.452-1.19-0.798c-0.346-0.345-0.621-0.766-0.826-1.26s-0.308-1.05-0.308-1.666
		C41.804,15.292,41.906,14.775,42.111,14.299L42.111,14.299z M67.115,18.821c-0.317,0.411-0.69,0.756-1.12,1.036
		c-0.43,0.28-0.999,0.42-1.708,0.42c-0.915,0-1.713-0.256-2.394-0.77c-0.682-0.514-1.097-1.236-1.246-2.171h11.648
		c0.037-0.186,0.065-0.358,0.084-0.518c0.019-0.158,0.028-0.396,0.028-0.714c0-1.176-0.206-2.282-0.616-3.318
		c-0.411-1.036-0.98-1.936-1.708-2.702c-0.728-0.765-1.596-1.367-2.604-1.806c-1.008-0.438-2.1-0.658-3.276-0.658
		c-1.176,0-2.264,0.233-3.262,0.7c-0.999,0.467-1.862,1.083-2.59,1.848c-0.728,0.766-1.293,1.652-1.694,2.66
		c-0.401,1.008-0.602,2.054-0.602,3.137c0,1.157,0.219,2.235,0.658,3.233c0.438,0.999,1.036,1.872,1.792,2.618
		c0.756,0.747,1.628,1.33,2.618,1.75c0.989,0.42,2.044,0.63,3.164,0.63c1.642,0,3.117-0.467,4.424-1.4
		c0.653-0.447,1.25-1.003,1.792-1.666c0.541-0.662,0.999-1.432,1.372-2.31H67.115L67.115,18.821z M60.704,14.201
		c0.056-0.224,0.154-0.49,0.294-0.798c0.14-0.308,0.35-0.602,0.63-0.882c0.28-0.28,0.634-0.513,1.064-0.7
		c0.429-0.187,0.942-0.28,1.54-0.28c0.597,0,1.11,0.093,1.54,0.28c0.429,0.187,0.784,0.42,1.064,0.7
		c0.28,0.28,0.49,0.574,0.63,0.882s0.238,0.574,0.294,0.798H60.704L60.704,14.201z"/>
	<text transform="matrix(1 0 0 1 73.124 23.6929)" font-family="'GalaxieCopernicus-Book'" font-size="28" letter-spacing="-2">To</text>
	<text transform="matrix(1 0 0 1 110.1553 23.6929)" font-family="'GalaxieCopernicus-Book'" font-size="28">te</text>
	<text transform="matrix(1 0 0 1 136.0146 23.6929)" font-family="'GalaxieCopernicus-Book'" font-size="28">s</text>
</g>
</svg>
