<?xml version="1.0" encoding="UTF-8" standalone="no"?>
<svg width="24px" height="38px" viewBox="0 0 24 38" version="1.1" xmlns="http://www.w3.org/2000/svg" xmlns:xlink="http://www.w3.org/1999/xlink" xmlns:sketch="http://www.bohemiancoding.com/sketch/ns">
    <!-- Generator: Sketch 3.0.4 (8054) - http://www.bohemiancoding.com/sketch -->
    <title>Imported Layers 3</title>
    <desc>Created with Sketch.</desc>
    <defs></defs>
    <g id="Page-2" stroke="none" stroke-width="1" fill="none" fill-rule="evenodd" sketch:type="MSPage">
        <g id="--BAG-DETAIL--" sketch:type="MSArtboardGroup" transform="translate(-20.000000, -10.000000)" fill="#D93182">
            <g id="Header" sketch:type="MSLayerGroup" transform="translate(-2.000000, -2.000000)">
                <path d="M42,25.5 L42,20 C42,15.582 38.418,12 34,12 C29.583,12 26,15.582 26,20 L26,25.5 L22,25.5 L22,47.5 L24,49.5 L44,49.5 L46,47.5 L46,25.5 L42,25.5 L42,25.5 Z M30,20 C30,17.794 31.795,16 34,16 C36.205,16 38,17.794 38,20 L38,25.5 L30,25.5 L30,20 L30,20 Z M40,33 L40,44.5 L36,44.5 L36,39.5 L32,39.5 L32,44.5 L28,44.5 L28,30.5 L32,30.5 L32,35.5 L36,35.5 L36,30.5 L40,30.5 L40,33 L40,33 Z" id="Imported-Layers-3" sketch:type="MSShapeGroup"></path>
            </g>
        </g>
    </g>
</svg>