<?xml version="1.0" encoding="UTF-8" standalone="no"?>
<svg width="24px" height="38px" viewBox="0 0 24 38" version="1.1" xmlns="http://www.w3.org/2000/svg" xmlns:xlink="http://www.w3.org/1999/xlink" xmlns:sketch="http://www.bohemiancoding.com/sketch/ns">
    <!-- Generator: Sketch 3.0.4 (8054) - http://www.bohemiancoding.com/sketch -->
    <title>Imported Layers</title>
    <desc>Created with Sketch.</desc>
    <defs></defs>
    <g id="Designer-Flow" stroke="none" stroke-width="1" fill="none" fill-rule="evenodd" sketch:type="MSPage">
        <g id="--COLOR-PICKER" sketch:type="MSArtboardGroup" transform="translate(-30.000000, -944.000000)" fill="#1A1919">
            <g id="Bag-Size" sketch:type="MSLayerGroup" transform="translate(30.000000, 942.000000)">
                <path d="M20,15.5 L20,10 C20,5.582 16.418,2 12,2 C7.583,2 4,5.582 4,10 L4,15.5 L0,15.5 L0,37.5 L2,39.5 L22,39.5 L24,37.5 L24,15.5 L20,15.5 L20,15.5 Z M8,10 C8,7.794 9.795,6 12,6 C14.205,6 16,7.794 16,10 L16,15.5 L8,15.5 L8,10 L8,10 Z" id="Imported-Layers" sketch:type="MSShapeGroup"></path>
            </g>
        </g>
    </g>
</svg>