<?xml version="1.0" encoding="UTF-8" standalone="no"?>
<svg width="24px" height="30px" viewBox="0 0 24 30" version="1.1" xmlns="http://www.w3.org/2000/svg" xmlns:xlink="http://www.w3.org/1999/xlink" xmlns:sketch="http://www.bohemiancoding.com/sketch/ns">
    <!-- Generator: Sketch 3.0.4 (8054) - http://www.bohemiancoding.com/sketch -->
    <title>Imported Layers</title>
    <desc>Created with Sketch.</desc>
    <defs></defs>
    <g id="Designer-Flow" stroke="none" stroke-width="1" fill="none" fill-rule="evenodd" sketch:type="MSPage">
        <g id="--DEFAULT" sketch:type="MSArtboardGroup" transform="translate(-61.000000, -513.000000)" fill="#DA3082">
            <g id="Trash-Icon" sketch:type="MSLayerGroup" transform="translate(40.000000, 495.000000)">
                <g id="Imported-Layers" transform="translate(21.000000, 18.000000)" sketch:type="MSShapeGroup">
                    <path d="M8,7.917 L10,7.917 L10,25.917 L8,25.917 L8,7.917 Z" id="Fill-1"></path>
                    <path d="M14,7.917 L16,7.917 L16,25.917 L14,25.917 L14,7.917 Z" id="Fill-2"></path>
                    <path d="M24,4 L0,4 L0,6 L2,6 L2,30 L22,30 L22,6 L24,6 L24,4 L24,4 Z M4,6 L20,6 L20,28 L4,28 L4,6 Z" id="Fill-3"></path>
                    <path d="M6,0 L18,0 L18,2 L6,2 L6,0 Z" id="Fill-4"></path>
                </g>
            </g>
        </g>
    </g>
</svg>