<?xml version="1.0" encoding="UTF-8" standalone="no"?>
<svg width="39px" height="39px" viewBox="0 0 39 39" version="1.1" xmlns="http://www.w3.org/2000/svg" xmlns:xlink="http://www.w3.org/1999/xlink" xmlns:sketch="http://www.bohemiancoding.com/sketch/ns">
    <!-- Generator: Sketch 3.3.2 (12043) - http://www.bohemiancoding.com/sketch -->
    <title>Imported Layers</title>
    <desc>Created with Sketch.</desc>
    <defs></defs>
    <g id="Page-4" stroke="none" stroke-width="1" fill="none" fill-rule="evenodd" sketch:type="MSPage">
        <g id="iPhone-6" sketch:type="MSArtboardGroup" transform="translate(-308.000000, -602.000000)">
            <g id="Imported-Layers" sketch:type="MSLayerGroup" transform="translate(308.000000, 602.000000)">
                <path id="Fill-1" fill="#000000" sketch:type="MSShapeGroup"></path>
                <path d="M35.536,9.888 C32.25,4.21 26.126,0.381 19.095,0.38 L19.095,19.38 L35.536,28.872 C37.153,26.077 38.094,22.842 38.094,19.38 C38.094,15.919 37.153,12.684 35.536,9.888" id="Fill-2" fill="#FE4344" sketch:type="MSShapeGroup"></path>
                <path d="M19.094,0.38 C12.063,0.38 5.938,4.21 2.652,9.887 C1.034,12.683 0.094,15.918 0.094,19.38 C0.094,22.842 1.034,26.078 2.652,28.873 L19.095,19.38 L19.095,0.38 L19.094,0.38" id="Fill-3" fill="#EEEEEE" sketch:type="MSShapeGroup"></path>
                <path d="M19.095,19.38 L19.095,19.38 L2.652,28.873 C5.938,34.551 12.063,38.38 19.094,38.38 L19.095,38.38 C26.126,38.38 32.251,34.55 35.536,28.872 L19.095,19.38" id="Fill-4" fill="#000000" sketch:type="MSShapeGroup"></path>
            </g>
        </g>
    </g>
</svg>