<svg xmlns="http://www.w3.org/2000/svg" width="615" height="902" viewBox="0 0 615 902"><title>Big Bag</title><desc>Created with Sketch.</desc><g><path fill="#f00" d="M13.865 419.406v433.257L53.91 902.94h520.606l40.047-50.274v-433.26H13.865"/><path fill="#fff" d="M79.963 831.602V819.8H78.07v4.952h-2.074V819.8H74.1V831.6h1.896v-4.954h2.073v4.954h1.893"/><path fill="#fff" d="M87.897 819.8H86v9.367c0 .296-.242.54-.54.54h-.99c-.297 0-.54-.244-.54-.54V819.8h-1.896v9.862c0 1.07.87 1.94 1.938 1.94h1.983c1.07 0 1.94-.87 1.94-1.94V819.8"/><path fill="#fff" d="M103.765 821.693v-1.895h-5.862V831.6h5.862v-1.895h-3.967v-3.06h1.984v-1.895h-1.984v-3.06h3.967"/><path fill="#fff" d="M95.832 824.752h-2.887v1.896h.99v2.52c0 .297-.243.538-.54.538h-.99c-.297 0-.54-.243-.54-.54v-6.937c0-.302.238-.537.54-.537h.99c.297 0 .54.24.54.536v.453h1.897v-.946c0-1.07-.87-1.938-1.942-1.938h-1.98c-1.07 0-1.942.867-1.942 1.937v7.925c0 1.07.872 1.94 1.942 1.94h1.98c1.07 0 1.942-.87 1.942-1.94v-4.91"/><path fill="#DA3082" d="M.233 452.084H13.81v32.06H.233v-32.06z"/><path fill="#fff" d="M8.555 454.54v4.603H5.483v-4.604H2.41v12.284h3.073v-4.612h3.072v4.612h3.074V454.54H8.554"/><path fill="#f00" d="M327.824 1.227c-2.714 0-5.37.134-7.976.392-2.606-.258-5.265-.393-7.98-.393-146.786 0-131.755 383.315-131.755 383.315v33.348h49.326v-33.348S212.186 21.76 319.847 4.742c107.785 17.017 93.213 379.8 93.213 379.8v33.348h49.327v-33.348c.002 0 12.226-383.315-134.563-383.315"/></g></svg>