<svg xmlns="http://www.w3.org/2000/svg" width="469" height="822" viewBox="0 0 469 822"><title>Imported Layers</title><desc>Created with Sketch.</desc><path fill="#f00" d="M253.363.878c-2.362 0-4.67.128-6.938.353-2.268-.224-4.576-.352-6.94-.352-127.686 0-114.61 333.714-114.61 333.714v29.03h42.91v-29.03S152.774 18.752 246.426 3.94c93.758 14.813 81.082 330.652 81.082 330.652v29.03h42.905v-29.03S381.05.878 253.363.878"/><path fill="#f00" d="M14.82 365.094v408.92l34.835 47.078h383.738l34.835-47.075V365.094H14.82"/><path fill="#fff" d="M80.308 755.293v-11.78H78.42v4.944h-2.067v-4.943h-1.89v11.78h1.89v-4.944h2.067v4.943h1.888"/><path fill="#fff" d="M88.218 743.514h-1.89v9.35c0 .295-.242.537-.538.537h-.987c-.297 0-.54-.24-.54-.537v-9.35h-1.89v9.844c0 1.067.867 1.937 1.933 1.937h1.977c1.067 0 1.935-.87 1.935-1.937v-9.843"/><path fill="#fff" d="M104.04 745.405v-1.892h-5.845v11.78h5.844V753.4h-3.956v-3.05h1.978v-1.894h-1.978v-3.052h3.955"/><path fill="#fff" d="M96.13 748.457h-2.88v1.893h.987v2.515c0 .296-.24.536-.536.536h-.986c-.297 0-.54-.24-.54-.537v-6.923c0-.3.238-.534.54-.534h.987c.296 0 .537.24.537.534v.453h1.893v-.944c0-1.068-.87-1.936-1.937-1.936h-1.975c-1.067 0-1.937.867-1.937 1.935v7.907c0 1.067.87 1.937 1.938 1.937h1.975c1.067 0 1.937-.87 1.937-1.937v-4.9"/><path fill="#DA3082" d="M.868 398.75h13.537v31.99H.868v-31.99z"/><path fill="#fff" d="M9.165 401.2v4.594H6.102V401.2H3.04v12.26H6.1v-4.603h3.063v4.603h3.064V401.2H9.164"/></svg>