<svg xmlns="http://www.w3.org/2000/svg" width="614.562" height="904" viewBox="0 0 614.562 904"><title>Big Bag</title><desc>Created with Sketch.</desc><g><path fill="#fff" stroke="#000" stroke-miterlimit="10" d="M13.75 418.18v433.255l40.045 50.28H574.4l40.047-50.276V418.18H13.75"/><path fill="#DA3082" d="M79.847 830.375v-11.803h-1.894v4.953H75.88v-4.953h-1.895v11.803h1.895v-4.953h2.073v4.953h1.894"/><path fill="#DA3082" d="M87.78 818.572h-1.896v9.367c0 .296-.242.538-.54.538h-.99c-.297 0-.54-.242-.54-.54v-9.366h-1.896v9.863c0 1.068.87 1.938 1.938 1.938h1.983c1.07 0 1.94-.87 1.94-1.938v-9.863"/><path fill="#DA3082" d="M103.65 820.467v-1.896h-5.863v11.804h5.862v-1.896H99.68v-3.06h1.984v-1.896h-1.984v-3.06h3.967"/><path fill="#DA3082" d="M95.716 823.525H92.83v1.896h.988v2.52c0 .298-.242.538-.538.538h-.99c-.298 0-.54-.242-.54-.54v-6.937c0-.3.237-.534.54-.534h.99c.296 0 .538.238.538.535v.454h1.898v-.943c0-1.07-.87-1.938-1.942-1.938h-1.98c-1.07 0-1.942.87-1.942 1.94v7.923c0 1.068.872 1.938 1.942 1.938h1.98c1.07 0 1.942-.867 1.942-1.938v-4.91"/><path fill="#DA3082" d="M.117 450.857h13.577v32.06H.117v-32.06z"/><path fill="#fff" d="M8.44 453.312v4.604H5.366v-4.604H2.294v12.285h3.073v-4.613H8.44v4.613h3.073v-12.285H8.44"/><path stroke="#000" stroke-miterlimit="10" d="M462.272 416.663v-33.348S474.5 0 327.71 0" fill="none"/><path stroke="#000" stroke-miterlimit="10" d="M327.708 0c-2.715 0-5.37.134-7.977.392C317.127.135 314.467 0 311.753 0 164.965 0 179.996 383.315 179.996 383.315v33.348" fill="none"/><path stroke="#000" stroke-miterlimit="10" d="M229.324 416.663v-33.348s-17.252-362.783 90.41-379.8c107.784 17.017 93.213 379.8 93.213 379.8v33.348" fill="none"/></g></svg>