<svg width="615" height="902" viewBox="0 0 615 902" xmlns="http://www.w3.org/2000/svg"><title>Big Bag</title><desc>Created with Sketch.</desc><g fill="none"><path d="M13.865 418.356v433.257l40.047 50.278h520.605l40.047-50.274v-433.26h-600.7" fill="#1A1918"/><path d="M79.963 831.602V819.8H78.07v4.952h-2.073V819.8h-1.895V831.6h1.895v-4.954h2.072v4.954h1.893" fill="#DA3082"/><path d="M87.897 819.8H86v9.367c0 .296-.242.54-.54.54h-.988c-.3 0-.54-.244-.54-.54V819.8h-1.897v9.862c0 1.07.87 1.94 1.938 1.94h1.983c1.07 0 1.94-.87 1.94-1.94V819.8" fill="#DA3082"/><path d="M103.765 821.694V819.8h-5.862V831.6h5.862v-1.896h-3.967v-3.058h1.984v-1.896h-1.984v-3.058h3.967" fill="#DA3082"/><path d="M95.832 824.752h-2.887v1.896h.99v2.52c0 .297-.243.538-.538.538h-.99c-.298 0-.54-.243-.54-.54v-6.937c0-.3.237-.536.54-.536h.99c.295 0 .537.24.537.535v.453h1.898v-.946c0-1.07-.87-1.938-1.942-1.938h-1.98c-1.07 0-1.942.867-1.942 1.937v7.925c0 1.07.87 1.94 1.942 1.94h1.98c1.07 0 1.942-.87 1.942-1.94v-4.91" fill="#DA3082"/><path d="M.233 452.084H13.81v32.058H.234v-32.058z" fill="#DA3082"/><path d="M8.555 454.54v4.602h-3.07v-4.603H2.41v12.284h3.074v-4.612h3.07v4.612h3.075V454.54H8.554" fill="#fff"/><path d="M327.825.177c-2.714 0-5.37.135-7.976.392-2.608-.258-5.266-.393-7.98-.393-146.787 0-131.756 383.315-131.756 383.315v33.348h49.327v-33.348S212.19 20.71 319.85 3.692c107.785 17.017 93.213 379.8 93.213 379.8v33.348h49.326v-33.348S474.612.177 327.824.177" fill="#000"/></g></svg>