<svg width="469" height="822" viewBox="0 0 469 822" xmlns="http://www.w3.org/2000/svg"><title>Imported Layers</title><desc>Created with Sketch.</desc><g fill="none"><path d="M253.364.878c-2.363 0-4.67.128-6.938.353-2.268-.224-4.577-.352-6.94-.352-127.687 0-114.61 333.714-114.61 333.714v29.03h42.908v-29.03S152.774 18.752 246.427 3.94c93.758 14.813 81.082 330.652 81.082 330.652v29.03h42.905v-29.03S381.05.878 253.365.878" fill="#000"/><path d="M14.82 365.094v408.92l34.835 47.08h383.74l34.833-47.076V365.094H14.82" fill="#1A1918"/><path d="M80.307 755.293v-11.78H78.42v4.944h-2.067v-4.943h-1.89v11.78h1.89v-4.945h2.066v4.943h1.887" fill="#DA3082"/><path d="M88.218 743.514h-1.892v9.348c0 .296-.24.538-.537.538h-.987c-.298 0-.54-.242-.54-.538v-9.348h-1.89v9.842c0 1.068.867 1.937 1.933 1.937h1.977c1.067 0 1.935-.87 1.935-1.937v-9.842" fill="#DA3082"/><path d="M104.038 745.405v-1.89h-5.844v11.778h5.844V753.4h-3.954v-3.05h1.977v-1.893h-1.976v-3.052h3.954" fill="#DA3082"/><path d="M96.13 748.457h-2.88v1.892h.987v2.514c0 .296-.24.536-.536.536h-.986c-.297 0-.54-.242-.54-.538v-6.922c0-.3.24-.535.54-.535h.987c.296 0 .537.24.537.535v.452h1.893v-.943c0-1.07-.87-1.936-1.937-1.936H92.22c-1.068 0-1.938.867-1.938 1.935v7.906c0 1.068.87 1.937 1.937 1.937h1.973c1.068 0 1.937-.87 1.937-1.937v-4.9" fill="#DA3082"/><path d="M.868 398.75h13.537v31.99H.868v-31.99z" fill="#DA3082"/><path d="M9.165 401.2v4.594H6.102V401.2H3.038v12.26h3.064v-4.603h3.063v4.603h3.065V401.2H9.165" fill="#fff"/></g></svg>