<svg xmlns="http://www.w3.org/2000/svg" width="469" height="822" viewBox="0 0 469 822"><title>Imported Layers</title><desc>Created with Sketch.</desc><path fill="#fff" stroke="#000" stroke-miterlimit="10" d="M370.415 363.623v-29.03S381.05.877 253.363.877"/><path fill="#fff" stroke="#000" stroke-miterlimit="10" d="M253.363.878c-2.362 0-4.67.128-6.938.353-2.268-.224-4.575-.352-6.938-.352-127.688 0-114.61 333.714-114.61 333.714v29.03"/><path fill="#fff" stroke="#000" stroke-miterlimit="10" d="M14.82 365.094v408.92l34.835 47.078h383.738l34.836-47.075V365.094H14.82"/><path fill="#DA3082" d="M80.308 755.293v-11.78H78.42v4.944h-2.067v-4.943h-1.89v11.78h1.89v-4.944h2.067v4.943h1.888"/><path fill="#DA3082" d="M88.218 743.514h-1.89v9.35c0 .296-.242.538-.538.538h-.987c-.297 0-.54-.242-.54-.538v-9.35h-1.89v9.844c0 1.066.867 1.937 1.933 1.937h1.977c1.067 0 1.935-.87 1.935-1.937v-9.844"/><path fill="#DA3082" d="M104.04 745.405v-1.893h-5.845v11.78h5.844V753.4h-3.956v-3.052h1.978v-1.893h-1.978v-3.052l3.955.002"/><path fill="#DA3082" d="M96.13 748.457h-2.88v1.893h.987v2.516c0 .296-.24.536-.536.536h-.986c-.297 0-.54-.242-.54-.538v-6.923c0-.3.238-.533.54-.533h.987c.296 0 .537.238.537.534v.453h1.893v-.943c0-1.067-.87-1.936-1.937-1.936h-1.975c-1.067 0-1.937.867-1.937 1.936v7.908c0 1.066.87 1.937 1.938 1.937h1.975c1.067 0 1.937-.87 1.937-1.937v-4.9"/><path fill="#DA3082" d="M.868 398.75h13.537v31.99H.868v-31.99z"/><path fill="#fff" d="M9.165 401.2v4.594H6.102V401.2H3.04v12.26H6.1v-4.603h3.063v4.603h3.064V401.2H9.164"/><path stroke="#000" stroke-miterlimit="10" d="M167.784 363.623v-29.03S152.776 18.752 246.427 3.94c93.76 14.813 81.082 330.652 81.082 330.652v29.03" fill="none"/></svg>