<svg width="31" height="29" viewBox="0 0 31 29" xmlns="http://www.w3.org/2000/svg"><title>Imported Layers</title><desc>Created with Sketch.</desc><g fill="#fff"><path d="M27.75 3.54c1.012 4.05.967 10.883.836 13.567l-.003.05v.048C28.583 20.843 25.86 27 15.65 27 5.44 27 2.718 20.843 2.718 17.205v-.05l-.003-.048c-.13-2.684-.176-9.518.836-13.568 1.15.675 2.815 1.81 4.853 3.63L9.33 8l1.153-.465c1.538-.62 3.325-.947 5.167-.947 1.844 0 3.63.328 5.166.947L21.97 8l.928-.83c2.037-1.82 3.7-2.955 4.852-3.63M28.878.755s-2.84.923-7.314 4.924c-1.715-.692-3.743-1.092-5.914-1.092-2.17 0-4.197.4-5.914 1.092C5.263 1.68 2.423.756 2.423.756.13 5.292.718 17.206.718 17.206.718 21.33 3.718 29 15.65 29s14.933-7.67 14.933-11.795c0 0 .588-11.913-1.705-16.45"/><path d="M9.226 15.916c1.014 0 1.84.824 1.84 1.837 0 1.014-.826 1.84-1.84 1.84-1.013 0-1.837-.826-1.837-1.84 0-1.013.823-1.837 1.836-1.837m0-2c-2.12 0-3.837 1.718-3.837 3.837 0 2.12 1.717 3.84 3.836 3.84 2.12 0 3.84-1.72 3.84-3.84s-1.72-3.838-3.84-3.838"/><path d="M21.96 15.916c1.012 0 1.837.824 1.837 1.837 0 1.014-.825 1.84-1.838 1.84-1.015 0-1.84-.826-1.84-1.84 0-1.013.825-1.837 1.84-1.837m0-2c-2.12 0-3.84 1.718-3.84 3.837 0 2.12 1.72 3.84 3.84 3.84s3.837-1.72 3.837-3.84-1.718-3.838-3.838-3.838"/></g></svg>