<svg width="66" height="66" viewBox="0 0 66 66" xmlns="http://www.w3.org/2000/svg"><title>Heart Icon 3</title><desc>Created with Sketch.</desc><g transform="translate(0 0)" opacity=".15" fill="none"><path d="M39.95 23.272c2.9 0 6.03 2.644 6.03 6.915 0 4.667-4.498 8.387-8.135 11.395-1.525 1.26-2.62 2.137-3.502 2.84-.517.413-.954.762-1.343 1.082-.39-.32-.826-.67-1.343-1.08-.88-.705-1.977-1.58-3.524-2.86-3.615-2.99-8.114-6.71-8.114-11.377 0-1.937.68-3.724 1.92-5.03 1.133-1.198 2.63-1.885 4.11-1.885 1.826 0 3.442 1.02 4.673 2.95L33 29.79l2.277-3.568c1.23-1.93 2.847-2.95 4.673-2.95m0-2.843c-2.506 0-5.066 1.268-6.95 4.22-1.884-2.952-4.444-4.22-6.95-4.22-4.467 0-8.764 4.03-8.764 9.757 0 6.05 5.23 10.364 9.168 13.62C30.54 47.19 31.69 47.91 33 49.28c1.31-1.37 2.46-2.09 6.546-5.473 3.938-3.256 9.168-7.57 9.168-13.62 0-5.728-4.297-9.758-8.764-9.758" fill="#000"/><circle stroke="#000" stroke-width="3" cx="33" cy="33" r="33"/></g></svg>