<svg width="31" height="25" viewBox="0 0 31 25" xmlns="http://www.w3.org/2000/svg"><title>Imported Layers</title><desc>Created with Sketch.</desc><g fill="none"><path d="M2.584 2.666h26v19.667h-26V2.666zm-3 20.667h30V-.334h-30v23.667z" fill="#fff"/><path d="M1.5 23.102l8.167-6.718L12.584 19l8.5-7.334 8.583 11.436" stroke="#fff" stroke-width="2"/><path d="M8.584 6.666c1.105 0 2 .896 2 2 0 1.105-.895 2-2 2-1.106 0-2-.895-2-2 0-1.104.894-2 2-2m0-2c-2.205 0-4 1.795-4 4 0 2.206 1.795 4 4 4s4-1.794 4-4c0-2.205-1.795-4-4-4" fill="#fff"/></g></svg>